<?xml version="1.0" encoding="UTF-8" standalone="no"?>
<!-- Generator: Adobe Illustrator 17.0.0, SVG Export Plug-In . SVG Version: 6.00 Build 0)  -->

<svg
   xmlns:dc="http://purl.org/dc/elements/1.1/"
   xmlns:cc="http://creativecommons.org/ns#"
   xmlns:rdf="http://www.w3.org/1999/02/22-rdf-syntax-ns#"
   xmlns:svg="http://www.w3.org/2000/svg"
   xmlns="http://www.w3.org/2000/svg"
   xmlns:sodipodi="http://sodipodi.sourceforge.net/DTD/sodipodi-0.dtd"
   xmlns:inkscape="http://www.inkscape.org/namespaces/inkscape"
   version="1.1"
   id="Layer_1"
   x="0px"
   y="0px"
   width="1000"
   height="305.47501"
   viewBox="0 0 1000 305.475"
   enable-background="new 0 0 770 235"
   xml:space="preserve"
   inkscape:version="0.91 r13725"
   sodipodi:docname="BBC_1988.svg"><metadata
   id="metadata5411"><rdf:RDF><cc:Work
       rdf:about=""><dc:format>image/svg+xml</dc:format><dc:type
         rdf:resource="http://purl.org/dc/dcmitype/StillImage" /><dc:title></dc:title></cc:Work></rdf:RDF></metadata><defs
   id="defs5409" /><sodipodi:namedview
   pagecolor="#ffffff"
   bordercolor="#666666"
   borderopacity="1"
   objecttolerance="10"
   gridtolerance="10"
   guidetolerance="10"
   inkscape:pageopacity="0"
   inkscape:pageshadow="2"
   inkscape:window-width="1366"
   inkscape:window-height="705"
   id="namedview5407"
   showgrid="false"
   inkscape:zoom="0.43805804"
   inkscape:cx="830.35244"
   inkscape:cy="139.83574"
   inkscape:window-x="-8"
   inkscape:window-y="-8"
   inkscape:window-maximized="1"
   inkscape:current-layer="Layer_1" />
<polygon
   points="14.476,188.805 208.791,188.805 266.514,0 72.2,0 "
   id="polygon5389"
   transform="matrix(1.2998931,0,0,1.2998931,-0.4588623,9.8478514e-5)"
   style="fill:#333e48" />
<polygon
   points="266.654,188.805 460.969,188.805 518.692,0 324.378,0 "
   id="polygon5391"
   transform="matrix(1.2998931,0,0,1.2998931,-0.4588623,9.8478514e-5)"
   style="fill:#333e48" />
<polygon
   points="517.609,188.805 711.924,188.805 769.647,0 575.332,0 "
   id="polygon5393"
   transform="matrix(1.2998931,0,0,1.2998931,-0.4588623,9.8478514e-5)"
   style="fill:#333e48" />
<path
   d="m 227.26553,119.1626 c 8.85358,0 27.66303,-5.4739 33.76082,-25.418198 6.09781,-19.944201 -2.56858,-43.695901 -34.62135,-43.695901 l -87.10714,0 -44.443351,145.368409 88.820401,0 c 27.41735,0 56.08909,-9.71021 63.77277,-34.84231 10.47844,-34.2717 -20.18215,-41.412 -20.18215,-41.412 z m -48.09735,-36.048698 25.98877,0 c 15.42194,0 10.55123,24.339198 -7.44058,24.339198 l -25.98877,0 7.44058,-24.339198 z m 4.16877,77.460698 -27.85022,0 8.81848,-28.8447 24.05192,0 c 18.2817,-10e-4 14.6862,28.8447 -5.02018,28.8447 z"
   id="path5395"
   inkscape:connector-curvature="0"
   style="fill:#ffffff" />
<path
   d="m 554.91142,119.1626 c 8.85357,0 27.66303,-5.4739 33.76082,-25.418198 6.09781,-19.944201 -2.56858,-43.695901 -34.62135,-43.695901 l -87.10714,0 -44.44334,145.368409 88.82039,0 c 27.41735,0 56.08909,-9.71021 63.77277,-34.84231 10.47843,-34.2717 -20.18215,-41.412 -20.18215,-41.412 z m -48.09735,-36.048698 25.98877,0 c 15.42193,0 10.55123,24.339198 -7.44059,24.339198 l -25.98876,0 7.44058,-24.339198 z m 4.16875,77.460698 -27.8502,0 8.81848,-28.8447 24.05192,0 c 18.28169,-10e-4 14.68619,28.8447 -5.0202,28.8447 z"
   id="path5397"
   inkscape:connector-curvature="0"
   style="fill:#ffffff" />
<path
   d="m 858.48069,135.7336 49.8587,0 c -12.08642,39.531 -35.01003,67.04331 -84.15639,67.04331 -55.20126,0 -67.76343,-45.11021 -56.36726,-82.38591 8.49219,-27.778798 33.76732,-75.501699 90.27367,-75.501699 61.49275,0 62.66525,48.197401 57.65677,64.579999 l -50.80892,0 c 4.92788,-10.683897 0.6447,-25.403898 -11.93952,-25.403898 -12.58427,0 -26.10575,14.720001 -33.76473,39.768998 -7.65767,25.0489 -2.35151,39.531 11.41956,39.531 13.77107,-0.001 25.38691,-19.6479 27.82812,-27.6318 z"
   id="path5399"
   inkscape:connector-curvature="0"
   style="fill:#ffffff" />
<polygon
   points="0.353,235 194.668,235 200.369,216.353 6.054,216.353 "
   id="polygon5401"
   transform="matrix(1.2998931,0,0,1.2998931,-0.4588623,9.8478514e-5)"
   style="fill:#0082ca" />
<polygon
   points="252.531,235 446.846,235 452.547,216.353 258.232,216.353 "
   id="polygon5403"
   transform="matrix(1.2998931,0,0,1.2998931,-0.4588623,9.8478514e-5)"
   style="fill:#e2231a" />
<polygon
   points="503.486,235 697.8,235 703.501,216.353 509.187,216.353 "
   id="polygon5405"
   transform="matrix(1.2998931,0,0,1.2998931,-0.4588623,9.8478514e-5)"
   style="fill:#00af41" />
</svg>