<?xml version="1.0" encoding="utf-8"?>
<!-- Uploaded to: SVG Repo, www.svgrepo.com, Generator: SVG Repo Mixer Tools -->
<svg fill="#000000" width="800px" height="800px" viewBox="0 0 32 32" version="1.1" xmlns="http://www.w3.org/2000/svg">
<title>wind</title>
<path d="M13 10.761c0.041-0.005 0.077-0.013 0.112-0.023l-0.005 0.001c2.573-0.062 4.634-2.162 4.634-4.744 0-2.621-2.124-4.745-4.745-4.745-2.176 0-4.011 1.465-4.57 3.463l-0.008 0.033-0.009 0.018c-0.105 0.372-0.165 0.8-0.165 1.241v0c0 0.414 0.336 0.75 0.75 0.75s0.75-0.336 0.75-0.75v0c0.001-0.299 0.041-0.588 0.116-0.863l-0.005 0.023 0.007-0.015c0.386-1.395 1.644-2.402 3.138-2.402 1.795 0 3.25 1.455 3.25 3.25s-1.455 3.25-3.25 3.25v0c-0.019 0-0.034 0.009-0.053 0.011l-10.932-0.011c-0 0-0 0-0 0-0.414 0-0.75 0.336-0.75 0.75s0.336 0.75 0.749 0.75l10.985 0.011zM24.469 5.369c-2.875 0.003-5.298 1.936-6.045 4.572l-0.011 0.044-0.015 0.030c-0.138 0.49-0.217 1.053-0.217 1.634 0 0.003 0 0.005 0 0.008v-0c0 0.414 0.336 0.75 0.75 0.75s0.75-0.336 0.75-0.75v0c0-0.002 0-0.004 0-0.006 0-0.44 0.060-0.866 0.173-1.269l-0.008 0.033 0.007-0.014c0.568-2.052 2.419-3.533 4.615-3.533 2.641 0 4.781 2.141 4.781 4.781s-2.141 4.781-4.781 4.781c-0 0-0 0-0 0v0c-0.029 0.004-0.053 0.009-0.077 0.016l0.005-0.001-20.34-0.020c-0 0-0 0-0 0-0.414 0-0.75 0.336-0.75 0.75s0.336 0.75 0.749 0.75l20.413 0.021c0.054-0.005 0.103-0.016 0.151-0.031l-0.005 0.001c3.405-0.077 6.136-2.856 6.136-6.273 0-3.465-2.809-6.274-6.274-6.274-0.003 0-0.006 0-0.008 0h0zM22.718 19.809c-0.033-0.010-0.072-0.018-0.113-0.023l-0.003-0-18.546 0.018c-0.414 0-0.75 0.336-0.75 0.75s0.336 0.75 0.75 0.75c0 0 0 0 0.001 0l18.487-0.018c0.020 0.002 0.037 0.012 0.058 0.012 0 0 0 0 0 0 2.178 0 3.943 1.765 3.943 3.943s-1.765 3.943-3.943 3.943c-1.812 0-3.338-1.222-3.8-2.886l-0.007-0.028-0.007-0.015c-0.085-0.306-0.135-0.657-0.135-1.020v-0c0-0.001 0-0.003 0-0.004 0-0.414-0.336-0.75-0.75-0.75s-0.75 0.336-0.75 0.75c0 0.001 0 0.003 0 0.004v-0c0 0.003 0 0.006 0 0.010 0 0.502 0.068 0.989 0.197 1.45l-0.009-0.038 0.010 0.014c0.647 2.335 2.753 4.020 5.253 4.020 3.005 0 5.442-2.436 5.442-5.442 0-2.965-2.372-5.376-5.321-5.44l-0.006-0z"></path>
</svg>